<svg width="131" height="33" viewBox="0 0 131 33" fill="none" xmlns="http://www.w3.org/2000/svg">
<g clip-path="url(#clip0_2_4101)">
<g clip-path="url(#clip1_2_4101)">
<g clip-path="url(#clip2_2_4101)">
<path fill-rule="evenodd" clip-rule="evenodd" d="M29.6605 31.6725L34.9178 29.2787L22.499 2.27222L19.2906 9.11379L29.6605 31.6725Z" fill="#006BFF"/>
<path fill-rule="evenodd" clip-rule="evenodd" d="M3.51868 24.9659C5.8675 23.3217 8.59114 22.1273 11.6096 21.3477L21.0449 0.638062H14.7431L3.51868 24.9659Z" fill="#006BFF"/>
<path fill-rule="evenodd" clip-rule="evenodd" d="M1.20471 29.5136L6.612 32.0123C8.85088 29.8884 11.7944 28.644 14.8529 28.1793C18.8809 27.5846 23.2087 28.2692 26.637 29.9934L23.3936 22.9869C19.1407 22.0173 15.4476 22.2422 12.4291 22.9669C6.35213 24.4411 3.2187 27.4946 1.20471 29.5136Z" fill="#006BFF"/>
<path fill-rule="evenodd" clip-rule="evenodd" d="M14.443 19.5686C14.443 20.1034 14.8928 20.5282 15.3026 20.5282C15.6374 20.5282 15.9372 20.4582 16.2721 20.4582C17.3166 20.4582 17.9113 20.3432 19.1456 20.5132L20.6399 20.6981C21.1596 20.6981 21.6094 20.3582 21.8343 19.9434C22.1691 19.1588 21.6494 18.4942 21.2396 17.5796L19.4105 13.5766C19.3006 13.3817 19.3006 13.3168 19.1856 13.1518C18.6609 12.4472 17.5464 12.4422 17.0967 13.5367L14.5979 19.0389C14.523 19.1888 14.448 19.3587 14.448 19.5736L14.443 19.5686Z" fill="#006BFF"/>
<path fill-rule="evenodd" clip-rule="evenodd" d="M75.9771 17.0149C75.9771 16.3453 76.0521 15.8255 76.272 15.2158C76.3469 14.951 76.4569 14.7211 76.6068 14.5012C77.6413 12.7671 79.9301 12.1324 81.7792 13.0019C83.2934 13.7316 84.183 15.2558 84.183 16.975C84.183 18.7541 83.3684 20.0234 81.9291 20.868C80.8597 21.4777 79.2705 21.4477 78.161 20.903C77.9011 20.7781 77.7562 20.6931 77.5313 20.5132L77.2715 20.2833C76.8267 19.8785 76.4569 19.3138 76.237 18.7491C76.0871 18.2493 75.9771 17.5497 75.9771 17.0049V17.0149ZM79.1905 24.7061C80.9646 24.7061 82.3289 24.4162 83.7332 23.4717L84.178 23.1469V24.2663H88.0561V9.70357H84.178V10.858C83.8831 10.6481 83.8432 10.5681 83.3284 10.2433C82.3289 9.65359 80.9646 9.26379 79.7452 9.26379H79.0806C77.7112 9.26379 76.0521 9.94845 75.0926 10.7781C75.0176 10.858 74.9426 10.903 74.8727 10.983L74.3929 11.4227C74.133 11.6776 73.5783 12.4022 73.3934 12.7071C72.6937 13.8615 72.249 15.1908 72.249 16.5752C72.249 16.7851 72.214 16.83 72.214 17.0149L72.249 17.8795C72.3989 18.929 72.3989 19.0939 72.7637 20.0984C73.0586 20.838 73.6883 21.8425 74.203 22.3473L74.5328 22.6821C75.2375 23.3418 75.3474 23.4567 76.232 23.9515C76.3069 23.9864 76.3069 23.9964 76.3819 24.0214C76.7867 24.2163 77.1215 24.3363 77.5663 24.4712C77.9711 24.6011 78.6358 24.7111 79.1905 24.7111V24.7061Z" fill="#13306A"/>
<path fill-rule="evenodd" clip-rule="evenodd" d="M48.7808 21.3128C47.9662 21.3128 47.4115 21.3128 46.6769 20.933C46.2321 20.7031 46.1971 20.6531 45.8273 20.3583C45.6424 20.1983 45.4975 20.0584 45.3475 19.8635C45.2726 19.7736 45.1976 19.6786 45.1626 19.5836C44.2031 18.1544 44.2381 15.7606 45.1976 14.2963C45.7523 13.4867 46.7518 12.832 47.7463 12.6821C48.6709 12.5422 49.4805 12.6271 50.335 13.0519C51.6644 13.7116 52.6639 15.1559 52.6639 16.91C52.6639 18.2743 52.2591 19.2538 51.5194 19.9934C50.8148 20.7081 49.8953 21.3078 48.7858 21.3078L48.7808 21.3128ZM40.7248 16.5752C40.7248 18.4092 40.8348 19.3838 41.6494 20.928C42.1291 21.8375 42.7188 22.4322 43.4585 23.1019C44.5279 24.0464 46.1921 24.7061 47.6314 24.7061C48.8858 24.7061 49.6254 24.6261 50.6998 24.2413C51.0697 24.1164 51.4395 23.9415 51.7343 23.7566C52.2891 23.4467 52.2541 23.4317 52.6589 23.1469V24.2663H56.5369V9.70357H52.6589V10.823L51.7743 10.2233C50.2951 9.42371 49.3355 9.26379 47.5614 9.26379C46.7118 9.26379 45.4925 9.58862 44.7528 10.0034C44.0882 10.3832 44.0132 10.4682 43.4585 10.893L42.349 12.0224C41.9442 12.5622 41.6494 13.0269 41.3495 13.6716C41.0147 14.4112 40.7198 15.5207 40.7198 16.5802L40.7248 16.5752Z" fill="#13306A"/>
<path fill-rule="evenodd" clip-rule="evenodd" d="M116.837 29.2388H121.125L129.436 9.97341C129.511 9.87846 129.546 9.76352 129.586 9.66357H125.263C125.263 9.7885 125.078 10.1233 125.043 10.2533C124.933 10.4482 124.858 10.6431 124.783 10.818L122.269 16.5901C122.119 16.9849 121.975 17.3398 121.79 17.7445C121.715 17.9395 121.64 18.1244 121.53 18.3193C121.455 18.4692 121.345 18.759 121.31 18.909L120.535 17.1748C120.425 16.9799 120.35 16.805 120.275 16.6001C120.125 16.1953 119.981 15.8505 119.831 15.4457C119.201 13.9415 118.536 12.3722 117.912 10.848L117.432 9.66856H113.144C113.144 9.7935 114.103 11.9874 114.178 12.1374C114.513 12.9569 114.843 13.7515 115.213 14.5761C116.467 17.4997 117.727 20.5132 118.981 23.4217C119.201 23.8815 119.201 23.7016 118.906 24.3312L117.097 28.6191C116.987 28.804 116.877 29.0589 116.837 29.2438V29.2388Z" fill="#13306A"/>
<path fill-rule="evenodd" clip-rule="evenodd" d="M90.0153 24.2613H94.598L97.7764 19.6536C97.8114 19.7935 98.591 20.888 98.7359 21.0879C99.4405 22.1273 100.215 23.2118 100.915 24.2613H105.533L100.62 17.1498C100.695 17.0899 100.84 16.835 100.915 16.7101L104.903 10.6031C105.123 10.2882 105.308 9.97839 105.533 9.65855H100.915L100.51 10.2583C100.4 10.4682 100.25 10.6631 100.14 10.873L97.9613 14.2363C97.8863 14.3412 97.8114 14.4762 97.7414 14.5361L96.9668 13.3118C96.8918 13.2168 96.8568 13.1368 96.7819 13.0219L95.5975 11.1878C95.5225 11.0729 95.4475 10.9929 95.3776 10.878C95.2676 10.6681 95.1577 10.4981 95.0078 10.2782C94.8578 10.0584 94.7479 9.88344 94.603 9.65356H90.0203C90.2401 10.0783 92.6439 13.7216 93.0138 14.2413L94.8228 17.0099C94.9328 17.1948 94.8978 17.1798 94.6729 17.4747L94.0432 18.3742C93.4885 19.2538 92.7889 20.1983 92.1942 21.0779C91.7894 21.6776 90.1602 23.9514 90.0153 24.2513V24.2613Z" fill="#13306A"/>
<path fill-rule="evenodd" clip-rule="evenodd" d="M58.501 13.9664C58.501 15.0309 58.8358 16.0554 59.5705 16.76C59.8653 17.0349 60.2751 17.3398 60.605 17.5247C60.8248 17.6396 60.9748 17.7196 61.2346 17.8245C62.7889 18.4142 65.5225 18.6991 66.3721 19.0939C67.9613 19.8435 67.0767 21.5876 65.1527 21.5876C64.0832 21.5876 63.2336 21.5327 62.494 20.838L62.459 20.803C62.459 20.803 62.459 20.793 62.459 20.783C62.1992 20.5082 61.9443 20.0334 61.9443 19.6186C61.7594 19.6186 58.1412 20.3782 58.0262 20.4032C58.0612 20.6831 58.1762 21.2028 58.2461 21.4427C58.616 22.3772 59.2057 23.0819 60.0552 23.6016C61.0897 24.2113 62.6439 24.7011 64.2681 24.7011C65.6374 24.7011 66.7419 24.6311 67.9613 24.1463C68.8458 23.7865 69.5155 23.3268 70.0652 22.6421C70.3601 22.3173 70.545 21.9175 70.6949 21.4777C70.8798 21.0029 70.9548 20.5182 70.9898 19.9185L70.9148 19.1189C70.8798 18.854 70.8048 18.6141 70.7299 18.3942C70.545 17.9545 70.3251 17.5846 70.0252 17.2598C68.9908 16.0804 67.8063 15.8755 66.3671 15.5307C65.8523 15.4057 63.8533 15.0109 63.4135 14.871C63.0087 14.7311 62.529 14.5162 62.414 14.0514C62.1192 13.0469 63.0038 12.3073 64.1882 12.3073C65.1477 12.3073 66.2221 12.5272 66.7769 13.4267C66.9268 13.6366 67.0717 13.9814 67.0717 14.3063C67.3316 14.3063 67.7714 14.1813 67.9962 14.1364L70.7649 13.5916C70.7649 13.3268 70.58 12.827 70.505 12.6121C70.3551 12.2973 70.2451 12.0674 70.0602 11.7825C68.9508 10.1533 66.7719 9.25378 64.8528 9.25378C63.7084 9.25378 62.9688 9.25378 61.8993 9.6136C60.0902 10.2133 58.501 11.7476 58.501 13.9565V13.9664Z" fill="#13306A"/>
<path fill-rule="evenodd" clip-rule="evenodd" d="M107.677 24.2612H111.555V9.69849H107.677V24.2612Z" fill="#13306A"/>
<path fill-rule="evenodd" clip-rule="evenodd" d="M109.596 8.04436C110.335 8.04436 110.89 7.7645 111.295 7.40967C111.48 7.23976 111.665 6.98489 111.775 6.75C112.069 6.1603 112.034 5.3657 111.775 4.766C111.555 4.32622 111.035 3.79648 110.59 3.61158C110.44 3.55161 110.33 3.51662 110.145 3.47164C109.331 3.26675 108.446 3.5666 107.926 4.07134C107.482 4.53611 107.262 5.01587 107.227 5.72052C107.192 6.52012 107.562 7.21977 108.226 7.64955C108.596 7.91442 109.076 8.04436 109.591 8.04436H109.596Z" fill="#13306A"/>
</g>
</g>
</g>
<defs>
<clipPath id="clip0_2_4101">
<rect width="130" height="32" fill="white" transform="translate(0.3927 0.634277)"/>
</clipPath>
<clipPath id="clip1_2_4101">
<rect width="130" height="32" fill="white" transform="translate(0.3927 0.634277)"/>
</clipPath>
<clipPath id="clip2_2_4101">
<rect width="130" height="32" fill="white" transform="translate(0.3927 0.634277)"/>
</clipPath>
</defs>
</svg>
