<svg width="130" height="39" viewBox="0 0 130 39" fill="none" xmlns="http://www.w3.org/2000/svg">
<g clip-path="url(#clip0_2_2832)">
<g clip-path="url(#clip1_2_2832)">
<g clip-path="url(#clip2_2_2832)">
<path fill-rule="evenodd" clip-rule="evenodd" d="M28.9105 37.2464C29.1703 37.1864 31.894 35.877 32.5286 35.6122C32.8285 35.4772 33.9479 34.9025 34.1678 34.8576C34.1328 34.7426 32.3038 30.7746 32.0439 30.2049C31.9689 30.06 31.9339 29.94 31.859 29.7801L25.6321 16.3168C25.2573 15.5672 24.4377 13.7031 24.0679 12.9485C23.6581 12.1289 23.1333 10.8246 22.7236 9.995L21.754 7.85107C21.6441 7.93103 21.3442 8.56072 21.3043 8.73063C21.2293 8.89055 21.1543 9.00549 21.0794 9.16541L20.4447 10.5447C20.3697 10.7146 20.2948 10.8396 20.2198 11.0045L18.5406 14.6877C18.5406 14.7326 18.6906 15.0425 18.7655 15.1524L19.1753 16.067C19.2103 16.1569 19.2503 16.1919 19.2853 16.2719C19.3203 16.3718 19.3203 16.4218 19.3602 16.5117L19.81 17.4263C20.3697 18.5807 20.9295 19.96 21.4892 21.1144L22.1588 22.5187C22.2688 22.8286 22.4587 23.1134 22.5686 23.4283L24.4727 27.5462C24.8825 28.4458 25.3322 29.4403 25.742 30.3048L28.7255 36.7716C28.8005 36.9065 28.8755 37.0814 28.9105 37.2514V37.2464Z" fill="white"/>
<path fill-rule="evenodd" clip-rule="evenodd" d="M2.76355 30.5397C2.94846 30.4598 3.0634 30.3598 3.21333 30.2549L4.55765 29.4203C4.8575 29.2354 5.22732 29.1004 5.52717 28.9155C5.75205 28.7556 7.28129 28.0959 7.54116 27.991C8.54565 27.5912 9.855 27.1664 10.8595 26.9265C10.8945 26.7916 10.9345 26.7216 11.0094 26.6067C11.0444 26.4917 11.0844 26.3868 11.1593 26.2769C11.1943 26.1619 11.2343 26.072 11.3093 25.947C11.3443 25.8221 11.4192 25.7321 11.4592 25.6172L12.0539 24.3278C12.0889 24.2229 12.1289 24.1479 12.2038 24.033L13.2133 21.7491C13.6981 20.7546 14.2178 19.5802 14.7076 18.5407C14.8175 18.3108 14.8925 18.1059 15.0074 17.8811L17.3562 12.6987C17.4662 12.4738 17.5411 12.2639 17.6561 12.059L18.5506 10.11C18.6256 9.90506 18.7355 9.70017 18.8505 9.48528L20.1948 6.55174C20.2298 6.4468 20.3048 6.35684 20.3048 6.21191H14.0029C13.928 6.4418 13.7431 6.74665 13.6681 6.96654L12.1039 10.3798C12.0289 10.5147 11.9939 10.6297 11.919 10.7796L11.2093 12.2939C10.7595 13.1634 10.2398 14.4628 9.79003 15.3373L8.93046 17.2314C8.4457 18.2009 7.851 19.6752 7.32627 20.6447C7.02642 21.3043 6.61662 22.2539 6.28179 22.9385L5.23731 25.2074C5.12737 25.4723 5.01242 25.7221 4.90248 25.982C4.4527 26.8466 3.93297 28.1609 3.48319 29.0255C3.40823 29.1604 3.37325 29.2554 3.29828 29.4003L2.96345 30.1499C2.88849 30.2898 2.81353 30.4148 2.77854 30.5497L2.76355 30.5397Z" fill="white"/>
<path fill-rule="evenodd" clip-rule="evenodd" d="M0.449829 35.0823C0.634736 35.1023 1.82914 35.712 2.12899 35.837C2.23893 35.8919 2.35388 35.9269 2.46382 35.9969C2.61375 36.0569 2.68871 36.0968 2.79865 36.1468L5.85712 37.5761C5.8921 37.5311 6.23193 37.0863 6.79165 36.6666C7.46132 36.1668 8.06102 35.797 8.77066 35.4322C8.88061 35.3722 8.95557 35.3272 9.07051 35.2623L10.3749 34.7125C12.129 34.0079 14.6277 33.5481 16.6017 33.5481C17.981 33.5481 18.5408 33.5581 19.9201 33.718C21.6742 33.9129 23.8731 34.5726 25.4423 35.3522C25.5523 35.4122 25.7422 35.5321 25.8921 35.5571C25.5922 35.0324 25.1824 33.9829 24.8826 33.3882L24.4728 32.5086C24.3629 32.3487 24.3229 32.2238 24.2479 32.0639C24.098 31.769 23.988 31.5041 23.8381 31.2093C23.6882 30.8645 22.6437 28.7105 22.6437 28.5506C20.9646 28.1658 18.6507 27.9009 16.8616 27.9009C13.0585 27.9009 9.77516 28.8255 7.24143 30.0898C7.0915 30.1698 6.94158 30.2498 6.79165 30.3297L6.27191 30.5946C6.12199 30.6845 5.97206 30.7545 5.82214 30.8445C4.77766 31.4492 3.24843 32.5086 2.38886 33.2832C2.05403 33.5581 0.524791 34.8675 0.449829 35.0773V35.0823Z" fill="white"/>
<path fill-rule="evenodd" clip-rule="evenodd" d="M13.6932 25.1424C13.6932 25.6772 14.143 26.1019 14.5528 26.1019C14.8876 26.1019 15.1875 26.032 15.5223 26.032C16.5668 26.032 17.1615 25.917 18.3959 26.0869L19.8901 26.2719C20.4099 26.2719 20.8596 25.932 21.0845 25.5172C21.4194 24.7326 20.8996 24.068 20.4898 23.1534L18.6607 19.1504C18.5508 18.9555 18.5508 18.8906 18.4359 18.7256C17.9161 18.021 16.7967 18.016 16.3469 19.1104L13.8482 24.6127C13.7732 24.7626 13.6982 24.9325 13.6982 25.1474L13.6932 25.1424Z" fill="white"/>
<path fill-rule="evenodd" clip-rule="evenodd" d="M75.2173 14.6276C75.2173 13.9579 75.2923 13.4382 75.5122 12.8285C75.5872 12.5636 75.6971 12.3337 75.847 12.1138C76.8815 10.3797 79.1704 9.74502 81.0194 10.6146C82.5337 11.3442 83.4232 12.8685 83.4232 14.5876C83.4232 16.3667 82.6086 17.6361 81.1694 18.4807C80.0999 19.0904 78.5107 19.0604 77.4012 18.5156C77.1414 18.3907 76.9964 18.3057 76.7716 18.1258L76.5117 17.896C76.0669 17.4912 75.6971 16.9264 75.4772 16.3617C75.3273 15.857 75.2173 15.1623 75.2173 14.6176V14.6276ZM78.4307 22.3187C80.2048 22.3187 81.5692 22.0289 82.9734 21.0844L83.4182 20.7595V21.879H87.2963V7.31624H83.4182V8.47066C83.1234 8.26077 83.0834 8.18081 82.5687 7.85597C81.5692 7.26626 80.2048 6.87646 78.9854 6.87646H78.3208C76.9515 6.87646 75.2923 7.56611 74.3328 8.3907C74.2578 8.47066 74.1829 8.51564 74.1129 8.5956L73.6331 9.03539C73.3733 9.29026 72.8185 10.0149 72.6336 10.3197C71.929 11.4742 71.4892 12.8035 71.4892 14.1878C71.4892 14.3977 71.4542 14.4427 71.4542 14.6276L71.4892 15.4922C71.6391 16.5416 71.6391 16.7065 72.0089 17.711C72.3038 18.4507 72.9335 19.4552 73.4482 19.9599L73.7781 20.2947C74.4827 20.9544 74.5926 21.0694 75.4772 21.5641C75.5522 21.5991 75.5522 21.6091 75.6271 21.6341C76.0319 21.829 76.3668 21.9489 76.8115 22.0839C77.2163 22.2138 77.881 22.3237 78.4357 22.3237L78.4307 22.3187Z" fill="white"/>
<path fill-rule="evenodd" clip-rule="evenodd" d="M48.0259 18.9308C47.2113 18.9308 46.6566 18.9308 45.922 18.551C45.4772 18.3211 45.4422 18.2712 45.0724 17.9763C44.8875 17.8164 44.7376 17.6765 44.5926 17.4816C44.5177 17.3916 44.4427 17.2967 44.4077 17.2017C43.4482 15.7724 43.4832 13.3786 44.4427 11.9143C44.9974 11.1048 45.9969 10.4501 46.9914 10.3001C47.916 10.1602 48.7306 10.2451 49.5802 10.67C50.9095 11.3296 51.909 12.7739 51.909 14.528C51.909 15.8924 51.5042 16.8719 50.7646 17.6115C50.0599 18.3261 49.1404 18.9258 48.0309 18.9258L48.0259 18.9308ZM39.97 14.1932C39.97 16.0273 40.0799 17.0018 40.8945 18.546C41.3743 19.4556 41.964 20.0503 42.7036 20.7199C43.7731 21.6645 45.4372 22.3241 46.8765 22.3241C48.1309 22.3241 48.8705 22.2442 49.945 21.8594C50.3148 21.7344 50.6846 21.5595 50.9795 21.3746C51.5342 21.0648 51.4992 21.0498 51.904 20.7649V21.8844H55.782V7.32162H51.904V8.44106L51.0194 7.84136C49.5402 7.04176 48.5807 6.88184 46.8065 6.88184C45.957 6.88184 44.7376 7.20667 43.9979 7.62147C43.3333 8.00128 43.2583 8.08623 42.7036 8.51102L41.5942 9.64046C41.1894 10.1752 40.8945 10.645 40.5947 11.2897C40.2598 12.0293 39.965 13.1387 39.965 14.1982L39.97 14.1932Z" fill="white"/>
<path fill-rule="evenodd" clip-rule="evenodd" d="M116.087 26.8565H120.375L128.691 7.5911C128.766 7.49614 128.801 7.3812 128.841 7.28125H124.518C124.518 7.40619 124.333 7.74102 124.298 7.87096C124.188 8.06586 124.113 8.26076 124.038 8.43567L121.525 14.2078C121.375 14.6026 121.23 14.9574 121.045 15.3622C120.97 15.5571 120.895 15.742 120.785 15.9369C120.71 16.0869 120.6 16.3767 120.565 16.5266L119.79 14.7925C119.68 14.5976 119.605 14.4227 119.531 14.2178C119.381 13.813 119.236 13.4682 119.086 13.0634C118.456 11.5591 117.791 9.9899 117.167 8.46566L116.687 7.28625H112.399C112.399 7.41119 113.359 9.60509 113.434 9.75501C113.768 10.5746 114.098 11.3692 114.468 12.1938C115.722 15.1173 116.982 18.1308 118.236 21.0394C118.456 21.4992 118.456 21.3192 118.161 21.9489L116.352 26.2418C116.242 26.4267 116.132 26.6816 116.092 26.8665L116.087 26.8565Z" fill="white"/>
<path fill-rule="evenodd" clip-rule="evenodd" d="M89.2604 21.8792H93.8431L97.0215 17.2715C97.0565 17.4114 97.8361 18.5058 97.981 18.7057C98.6857 19.7452 99.4603 20.8297 100.16 21.8792H104.778L99.8651 14.7677C99.94 14.7077 100.085 14.4529 100.16 14.3279L104.148 8.22101C104.368 7.90616 104.553 7.59632 104.778 7.27648H100.16L99.7551 7.87618C99.6452 8.08608 99.4953 8.28098 99.3853 8.49087L97.2064 11.8542C97.1314 11.9591 97.0565 12.0941 96.9865 12.154L96.2119 10.9296C96.1369 10.8347 96.102 10.7547 96.027 10.6398L94.8426 8.80571C94.7676 8.69077 94.6927 8.61081 94.6227 8.49587C94.5128 8.28597 94.4028 8.11606 94.2529 7.89617C94.103 7.67628 93.993 7.50137 93.8481 7.27148H89.2654C89.4853 7.69627 91.8891 11.3394 92.2589 11.8592L94.068 14.6278C94.1779 14.8127 94.1429 14.7977 93.918 15.0926L93.2884 15.9921C92.7336 16.8717 92.034 17.8162 91.4393 18.6958C91.0345 19.2955 89.4053 21.5693 89.2604 21.8692V21.8792Z" fill="white"/>
<path fill-rule="evenodd" clip-rule="evenodd" d="M57.7411 11.5793C57.7411 12.6438 58.0709 13.6683 58.8106 14.3729C59.1054 14.6478 59.5102 14.9526 59.8451 15.1375C60.0649 15.2525 60.2149 15.3324 60.4747 15.4374C62.029 16.0271 64.7626 16.3119 65.6122 16.7067C67.2014 17.4564 66.3168 19.2005 64.3928 19.2005C63.3233 19.2005 62.4737 19.1455 61.7341 18.4509L61.6991 18.4159C61.6991 18.4159 61.6991 18.4059 61.6991 18.3959C61.4393 18.121 61.1794 17.6463 61.1794 17.2315C60.9945 17.2315 57.3763 17.9911 57.2614 18.0161C57.2963 18.296 57.4113 18.8157 57.4812 19.0556C57.8511 19.9901 58.4408 20.6947 59.2903 21.2145C60.3248 21.8242 61.879 22.3139 63.5032 22.3139C64.8725 22.3139 65.977 22.244 67.1964 21.7592C68.0809 21.3994 68.7506 20.9396 69.3003 20.255C69.5952 19.9301 69.7801 19.5303 69.93 19.0906C70.1149 18.6158 70.1899 18.131 70.2249 17.5313L70.1499 16.7317C70.1149 16.4669 70.04 16.232 69.965 16.0071C69.7801 15.5673 69.5602 15.1975 69.2653 14.8727C68.2309 13.6933 67.0465 13.4884 65.6072 13.1435C65.0924 13.0186 63.0934 12.6238 62.6537 12.4839C62.2489 12.3439 61.7691 12.134 61.6542 11.6643C61.3593 10.6598 62.2439 9.92017 63.4283 9.92017C64.3878 9.92017 65.4622 10.1401 66.017 11.0396C66.1669 11.2495 66.3118 11.5943 66.3118 11.9191C66.5717 11.9191 67.0115 11.7942 67.2364 11.7492L70.01 11.2045C70.01 10.9396 69.8251 10.4399 69.7501 10.225C69.6002 9.90517 69.4902 9.68029 69.3053 9.39543C68.1959 7.76624 66.017 6.8667 64.0979 6.8667C62.9535 6.8667 62.2139 6.86669 61.1444 7.22651C59.3353 7.82621 57.7461 9.36045 57.7461 11.5693L57.7411 11.5793Z" fill="white"/>
<path fill-rule="evenodd" clip-rule="evenodd" d="M106.922 21.8792H110.8V7.31641H106.922V21.8792Z" fill="white"/>
<path fill-rule="evenodd" clip-rule="evenodd" d="M108.841 5.66227C109.58 5.66227 110.135 5.38241 110.54 5.02759C110.725 4.85767 110.91 4.6028 111.02 4.36792C111.315 3.77821 111.28 2.98361 111.02 2.38391C110.8 1.94413 110.28 1.4144 109.835 1.22949C109.685 1.16952 109.575 1.13454 109.39 1.08956C108.576 0.884664 107.691 1.18452 107.172 1.68926C106.727 2.15403 106.507 2.63379 106.472 3.33843C106.437 4.13803 106.807 4.83768 107.471 5.26747C107.841 5.53233 108.321 5.66227 108.841 5.66227Z" fill="white"/>
<path d="M47.4014 32.2936C47.9261 32.4586 48.3409 32.7384 48.6408 33.1282C48.9406 33.518 49.0905 33.9978 49.0905 34.5725C49.0905 35.3821 48.7757 36.0018 48.151 36.4366C47.5213 36.8714 46.6068 37.0862 45.4074 37.0862H40.6398V27.8659H45.1425C46.2669 27.8659 47.1265 28.0808 47.7312 28.5105C48.3309 28.9403 48.6358 29.525 48.6358 30.2597C48.6358 30.7094 48.5258 31.1042 48.3109 31.4591C48.096 31.8089 47.7962 32.0887 47.4114 32.2886L47.4014 32.2936ZM42.7537 29.4751V31.649H44.8726C45.3974 31.649 45.7972 31.559 46.072 31.3741C46.3419 31.1892 46.4818 30.9193 46.4818 30.5595C46.4818 30.1997 46.3469 29.9298 46.072 29.7499C45.8022 29.57 45.4024 29.4801 44.8726 29.4801H42.7537V29.4751ZM45.2425 35.482C45.8022 35.482 46.227 35.3921 46.5118 35.2072C46.7967 35.0223 46.9416 34.7374 46.9416 34.3526C46.9416 33.588 46.3769 33.2082 45.2425 33.2082H42.7537V35.487H45.2425V35.482ZM55.1725 37.2462C54.218 37.2462 53.3534 37.0413 52.5838 36.6265C51.8142 36.2117 51.2145 35.647 50.7797 34.9223C50.3449 34.1977 50.13 33.3831 50.13 32.4785C50.13 31.574 50.3449 30.7594 50.7797 30.0348C51.2145 29.3101 51.8142 28.7404 52.5838 28.3306C53.3534 27.9158 54.213 27.7109 55.1725 27.7109C56.127 27.7109 56.9916 27.9158 57.7512 28.3306C58.5158 28.7454 59.1155 29.3101 59.5553 30.0348C59.9951 30.7594 60.215 31.574 60.215 32.4785C60.215 33.3831 59.9951 34.1977 59.5553 34.9223C59.1155 35.647 58.5158 36.2167 57.7512 36.6265C56.9866 37.0413 56.127 37.2462 55.1725 37.2462ZM55.1725 35.4271C55.7172 35.4271 56.207 35.3021 56.6468 35.0523C57.0865 34.8024 57.4314 34.4526 57.6812 34.0078C57.9311 33.558 58.056 33.0533 58.056 32.4785C58.056 31.9088 57.9311 31.3991 57.6812 30.9493C57.4314 30.4995 57.0865 30.1547 56.6468 29.9048C56.207 29.655 55.7172 29.53 55.1725 29.53C54.6278 29.53 54.138 29.655 53.6982 29.9048C53.2584 30.1547 52.9136 30.5045 52.6637 30.9493C52.4139 31.3991 52.2889 31.9038 52.2889 32.4785C52.2889 33.0483 52.4139 33.558 52.6637 34.0078C52.9136 34.4576 53.2584 34.8024 53.6982 35.0523C54.138 35.3021 54.6278 35.4271 55.1725 35.4271ZM66.2869 37.2462C65.3324 37.2462 64.4678 37.0413 63.6982 36.6265C62.9286 36.2117 62.3289 35.647 61.8941 34.9223C61.4593 34.1977 61.2444 33.3831 61.2444 32.4785C61.2444 31.574 61.4593 30.7594 61.8941 30.0348C62.3289 29.3101 62.9286 28.7404 63.6982 28.3306C64.4678 27.9158 65.3274 27.7109 66.2869 27.7109C67.2414 27.7109 68.106 27.9158 68.8656 28.3306C69.6302 28.7454 70.2299 29.3101 70.6697 30.0348C71.1095 30.7594 71.3294 31.574 71.3294 32.4785C71.3294 33.3831 71.1095 34.1977 70.6697 34.9223C70.2299 35.647 69.6302 36.2167 68.8656 36.6265C68.101 37.0413 67.2414 37.2462 66.2869 37.2462ZM66.2869 35.4271C66.8316 35.4271 67.3214 35.3021 67.7612 35.0523C68.201 34.8024 68.5458 34.4526 68.7957 34.0078C69.0455 33.558 69.1705 33.0533 69.1705 32.4785C69.1705 31.9088 69.0455 31.3991 68.7957 30.9493C68.5458 30.4995 68.201 30.1547 67.7612 29.9048C67.3214 29.655 66.8316 29.53 66.2869 29.53C65.7422 29.53 65.2524 29.655 64.8127 29.9048C64.3729 30.1547 64.0281 30.5045 63.7782 30.9493C63.5283 31.3991 63.4034 31.9038 63.4034 32.4785C63.4034 33.0483 63.5283 33.558 63.7782 34.0078C64.0281 34.4576 64.3729 34.8024 64.8127 35.0523C65.2524 35.3021 65.7422 35.4271 66.2869 35.4271ZM76.2969 33.4631L75.0575 34.7524V37.0812H72.9386V27.8609H75.0575V32.1687L79.1405 27.8609H81.5093L77.6912 31.9688L81.7342 37.0762H79.2454L76.2969 33.4531V33.4631ZM85.5123 37.2412C84.7827 37.2412 84.078 37.1412 83.3984 36.9463C82.7187 36.7514 82.174 36.4915 81.7592 36.1767L82.4838 34.5725C82.8786 34.8624 83.3484 35.0972 83.8931 35.2722C84.4378 35.4471 84.9826 35.537 85.5273 35.537C86.132 35.537 86.5818 35.4471 86.8716 35.2672C87.1615 35.0872 87.3064 34.8474 87.3064 34.5475C87.3064 34.3276 87.2214 34.1477 87.0515 34.0028C86.8816 33.8579 86.6617 33.7429 86.3919 33.653C86.122 33.563 85.7622 33.4681 85.3074 33.3631C84.6027 33.1982 84.028 33.0283 83.5833 32.8634C83.1335 32.6984 82.7537 32.4286 82.4288 32.0588C82.109 31.6889 81.9491 31.1992 81.9491 30.5845C81.9491 30.0498 82.094 29.565 82.3839 29.1302C82.6737 28.6954 83.1085 28.3506 83.6932 28.0957C84.2779 27.8409 84.9926 27.7159 85.8321 27.7159C86.4218 27.7159 86.9965 27.7859 87.5563 27.9258C88.116 28.0658 88.6107 28.2707 89.0305 28.5305L88.3709 30.1497C87.5213 29.665 86.6667 29.4251 85.8171 29.4251C85.2224 29.4251 84.7777 29.52 84.4928 29.7149C84.208 29.9098 84.063 30.1647 84.063 30.4795C84.063 30.7944 84.2279 31.0293 84.5578 31.1842C84.8876 31.3391 85.3874 31.489 86.067 31.639C86.7717 31.8039 87.3464 31.9738 87.7912 32.1387C88.2409 32.3036 88.6207 32.5685 88.9456 32.9283C89.2654 33.2881 89.4253 33.7779 89.4253 34.3926C89.4253 34.9173 89.2804 35.4021 88.9856 35.8369C88.6907 36.2716 88.2509 36.6165 87.6612 36.8713C87.0715 37.1262 86.3569 37.2512 85.5123 37.2512V37.2412Z" fill="white"/>
</g>
</g>
</g>
<defs>
<clipPath id="clip0_2_2832">
<rect width="129" height="38" fill="white" transform="translate(0.1427 0.43457)"/>
</clipPath>
<clipPath id="clip1_2_2832">
<rect width="129" height="38" fill="white" transform="translate(0.1427 0.43457)"/>
</clipPath>
<clipPath id="clip2_2_2832">
<rect width="129" height="38" fill="white" transform="translate(0.1427 0.43457)"/>
</clipPath>
</defs>
</svg>
