<svg width="130" height="33" viewBox="0 0 130 33" fill="none" xmlns="http://www.w3.org/2000/svg">
<g clip-path="url(#clip0_2_2590)">
<g clip-path="url(#clip1_2_2590)">
<g clip-path="url(#clip2_2_2590)">
<path fill-rule="evenodd" clip-rule="evenodd" d="M28.9105 31.4731L34.1678 29.0793L21.749 2.07275L18.5406 8.91432L28.9105 31.4731Z" fill="white"/>
<path fill-rule="evenodd" clip-rule="evenodd" d="M2.76868 24.7663C5.1175 23.1221 7.84114 21.9277 10.8596 21.1481L20.2949 0.438477H13.9931L2.76868 24.7663Z" fill="white"/>
<path fill-rule="evenodd" clip-rule="evenodd" d="M0.454712 29.3137L5.862 31.8125C8.10088 29.6886 11.0444 28.4442 14.1029 27.9794C18.1309 27.3847 22.4587 28.0694 25.887 29.7935L22.6436 22.787C18.3907 21.8175 14.6976 22.0374 11.6791 22.767C5.60213 24.2413 2.4687 27.2948 0.454712 29.3137Z" fill="white"/>
<path fill-rule="evenodd" clip-rule="evenodd" d="M13.693 19.369C13.693 19.9037 14.1428 20.3285 14.5526 20.3285C14.8874 20.3285 15.1872 20.2586 15.5221 20.2586C16.5666 20.2586 17.1613 20.1436 18.3956 20.3135L19.8899 20.4985C20.4096 20.4985 20.8594 20.1586 21.0843 19.7438C21.4191 18.9592 20.8994 18.2946 20.4896 17.38L18.6605 13.377C18.5506 13.1821 18.5506 13.1171 18.4356 12.9522C17.9109 12.2476 16.7964 12.2426 16.3467 13.337L13.8479 18.8393C13.773 18.9892 13.698 19.1591 13.698 19.374L13.693 19.369Z" fill="white"/>
<path fill-rule="evenodd" clip-rule="evenodd" d="M75.2271 16.8151C75.2271 16.1454 75.3021 15.6257 75.522 15.016C75.5969 14.7511 75.7069 14.5213 75.8568 14.3014C76.8913 12.5672 79.1801 11.9325 81.0292 12.8021C82.5434 13.5317 83.433 15.056 83.433 16.7751C83.433 18.5542 82.6184 19.8236 81.1791 20.6682C80.1097 21.2779 78.5205 21.2479 77.411 20.7032C77.1511 20.5782 77.0062 20.4933 76.7813 20.3134L76.5215 20.0835C76.0767 19.6787 75.7069 19.114 75.487 18.5492C75.3371 18.0445 75.2271 17.3498 75.2271 16.8051V16.8151ZM78.4405 24.5063C80.2146 24.5063 81.5789 24.2164 82.9832 23.2719L83.428 22.947V24.0665H87.3061V9.50375H83.428V10.6582C83.1331 10.4483 83.0932 10.3683 82.5784 10.0435C81.5789 9.45377 80.2146 9.06396 78.9952 9.06396H78.3306C76.9612 9.06396 75.3021 9.74861 74.3426 10.5782C74.2676 10.6582 74.1926 10.7032 74.1227 10.7831L73.6429 11.2229C73.383 11.4778 72.8283 12.2024 72.6434 12.5073C71.9437 13.6617 71.499 14.991 71.499 16.3753C71.499 16.5852 71.464 16.6302 71.464 16.8151L71.499 17.6797C71.6489 18.7291 71.6489 18.8941 72.0137 19.8986C72.3086 20.6382 72.9383 21.6427 73.453 22.1474L73.7828 22.4823C74.4875 23.1419 74.5974 23.2569 75.482 23.7516C75.5569 23.7866 75.5569 23.7966 75.6319 23.8216C76.0367 24.0165 76.3715 24.1364 76.8163 24.2714C77.2211 24.4013 77.8858 24.5113 78.4405 24.5113V24.5063Z" fill="white"/>
<path fill-rule="evenodd" clip-rule="evenodd" d="M48.0308 21.113C47.2162 21.113 46.6615 21.113 45.9269 20.7331C45.4821 20.5033 45.4471 20.4533 45.0773 20.1584C44.8924 19.9985 44.7475 19.8586 44.5975 19.6637C44.5226 19.5737 44.4476 19.4788 44.4126 19.3838C43.4531 17.9545 43.4881 15.5607 44.4476 14.0965C45.0023 13.2869 46.0018 12.6322 46.9963 12.4823C47.9209 12.3423 48.7305 12.4273 49.585 12.8521C50.9144 13.5118 51.9139 14.956 51.9139 16.7102C51.9139 18.0745 51.5091 19.054 50.7694 19.7936C50.0648 20.5083 49.1453 21.108 48.0358 21.108L48.0308 21.113ZM39.9748 16.3753C39.9748 18.2094 40.0848 19.1839 40.8994 20.7281C41.3791 21.6377 41.9688 22.2324 42.7085 22.9021C43.7779 23.8466 45.4421 24.5063 46.8814 24.5063C48.1358 24.5063 48.8754 24.4263 49.9498 24.0415C50.3197 23.9165 50.6895 23.7416 50.9843 23.5567C51.5391 23.2469 51.5041 23.2319 51.9089 22.947V24.0665H55.7869V9.50375H51.9089V10.6232L51.0243 10.0235C49.5451 9.22389 48.5855 9.06396 46.8114 9.06396C45.9618 9.06396 44.7425 9.38879 44.0028 9.80359C43.3382 10.1834 43.2632 10.2684 42.7085 10.6932L41.599 11.8226C41.1942 12.3573 40.8994 12.8271 40.5995 13.4718C40.2647 14.2114 39.9698 15.3209 39.9698 16.3803L39.9748 16.3753Z" fill="white"/>
<path fill-rule="evenodd" clip-rule="evenodd" d="M116.087 29.0391H120.375L128.686 9.77372C128.761 9.67876 128.796 9.56382 128.836 9.46387H124.513C124.513 9.58881 124.328 9.92364 124.293 10.0536C124.183 10.2485 124.108 10.4434 124.033 10.6183L121.519 16.3904C121.369 16.7852 121.225 17.14 121.04 17.5448C120.965 17.7397 120.89 17.9246 120.78 18.1195C120.705 18.2695 120.595 18.5593 120.56 18.7093L119.785 16.9751C119.675 16.7802 119.6 16.6053 119.525 16.4004C119.375 15.9956 119.231 15.6508 119.081 15.246C118.451 13.7417 117.786 12.1725 117.162 10.6483L116.682 9.46887H112.394C112.394 9.59381 113.353 11.7877 113.428 11.9376C113.763 12.7572 114.093 13.5518 114.463 14.3764C115.717 17.3 116.977 20.3134 118.231 23.222C118.451 23.6818 118.451 23.5019 118.156 24.1315L116.347 28.4244C116.237 28.6093 116.127 28.8642 116.087 29.0491V29.0391Z" fill="white"/>
<path fill-rule="evenodd" clip-rule="evenodd" d="M89.2653 24.0618H93.848L97.0264 19.4541C97.0614 19.594 97.841 20.6885 97.9859 20.8884C98.6905 21.9278 99.4651 23.0123 100.165 24.0618H104.783L99.8699 16.9503C99.9449 16.8904 100.09 16.6355 100.165 16.5106L104.153 10.4036C104.373 10.0888 104.558 9.77893 104.783 9.45909H100.165L99.76 10.0588C99.6501 10.2687 99.5001 10.4636 99.3902 10.6735L97.2113 14.0368C97.1363 14.1417 97.0614 14.2767 96.9914 14.3366L96.2168 13.1123C96.1418 13.0173 96.1068 12.9373 96.0319 12.8224L94.8475 10.9883C94.7725 10.8734 94.6975 10.7934 94.6276 10.6785C94.5176 10.4686 94.4077 10.2987 94.2578 10.0788C94.1078 9.85889 93.9979 9.68398 93.853 9.4541H89.2703C89.4901 9.87888 91.8939 13.5221 92.2638 14.0418L94.0728 16.8104C94.1828 16.9953 94.1478 16.9803 93.9229 17.2752L93.2932 18.1747C92.7385 19.0543 92.0389 19.9988 91.4442 20.8784C91.0394 21.4781 89.4102 23.7519 89.2653 24.0518V24.0618Z" fill="white"/>
<path fill-rule="evenodd" clip-rule="evenodd" d="M57.751 13.7667C57.751 14.8312 58.0858 15.8557 58.8205 16.5603C59.1153 16.8352 59.5251 17.14 59.855 17.3249C60.0748 17.4399 60.2248 17.5198 60.4846 17.6248C62.0389 18.2145 64.7725 18.4994 65.6221 18.8942C67.2113 19.6438 66.3267 21.3879 64.4027 21.3879C63.3332 21.3879 62.4836 21.3329 61.744 20.6383L61.709 20.6033C61.709 20.6033 61.709 20.5933 61.709 20.5833C61.4492 20.3084 61.1943 19.8337 61.1943 19.4189C61.0094 19.4189 57.3912 20.1785 57.2762 20.2035C57.3112 20.4834 57.4262 21.0031 57.4961 21.243C57.866 22.1775 58.4557 22.8822 59.3052 23.4019C60.3397 24.0116 61.8939 24.5013 63.5181 24.5013C64.8874 24.5013 65.9919 24.4314 67.2113 23.9466C68.0958 23.5868 68.7655 23.127 69.3152 22.4424C69.6101 22.1175 69.795 21.7177 69.9449 21.278C70.1298 20.8032 70.2048 20.3184 70.2398 19.7187L70.1648 18.9191C70.1298 18.6543 70.0548 18.4144 69.9799 18.1945C69.795 17.7547 69.5751 17.3849 69.2752 17.0601C68.2408 15.8807 67.0563 15.6758 65.6171 15.3359C65.1023 15.211 63.1033 14.8162 62.6635 14.6763C62.2587 14.5363 61.779 14.3214 61.664 13.8567C61.3692 12.8522 62.2538 12.1126 63.4382 12.1126C64.3977 12.1126 65.4721 12.3324 66.0269 13.232C66.1768 13.4419 66.3217 13.7867 66.3217 14.1116C66.5816 14.1116 67.0214 13.9866 67.2462 13.9416L70.0149 13.3969C70.0149 13.132 69.83 12.6323 69.755 12.4174C69.6051 12.0976 69.4951 11.8727 69.3102 11.5878C68.2008 9.95863 66.0219 9.05908 64.1028 9.05908C62.9584 9.05908 62.2188 9.05908 61.1493 9.4189C59.3402 10.0186 57.751 11.5528 57.751 13.7617V13.7667Z" fill="white"/>
<path fill-rule="evenodd" clip-rule="evenodd" d="M106.927 24.0618H110.805V9.49902H106.927V24.0618Z" fill="white"/>
<path fill-rule="evenodd" clip-rule="evenodd" d="M108.846 7.84489C109.585 7.84489 110.14 7.56503 110.545 7.21021C110.73 7.04029 110.915 6.78542 111.025 6.55054C111.319 5.96083 111.284 5.16623 111.025 4.56653C110.805 4.12675 110.285 3.59702 109.84 3.41211C109.69 3.35214 109.58 3.31716 109.395 3.27218C108.581 3.06728 107.696 3.36713 107.176 3.87188C106.732 4.33665 106.512 4.81641 106.477 5.52105C106.442 6.32065 106.812 7.0203 107.476 7.45009C107.846 7.71496 108.326 7.84489 108.841 7.84489H108.846Z" fill="white"/>
</g>
</g>
</g>
<defs>
<clipPath id="clip0_2_2590">
<rect width="129" height="32" fill="white" transform="translate(0.1427 0.43457)"/>
</clipPath>
<clipPath id="clip1_2_2590">
<rect width="129" height="32" fill="white" transform="translate(0.1427 0.43457)"/>
</clipPath>
<clipPath id="clip2_2_2590">
<rect width="129" height="32" fill="white" transform="translate(0.1427 0.43457)"/>
</clipPath>
</defs>
</svg>
